<svg xmlns="http://www.w3.org/2000/svg" viewBox="0 0 1024 1024" width="1024" height="1024">
  <defs>
    <!-- 涓昏儗鏅笎鍙?- 鐝犲厜娣辫摑 -->
    <linearGradient id="default_profile_bgGrad" x1="0%" y1="0%" x2="100%" y2="100%">
      <stop offset="0%" stop-color="#1a1a3e"/>
      <stop offset="50%" stop-color="#1e2347"/>
      <stop offset="100%" stop-color="#161830"/>
    </linearGradient>
    <!-- 鍏夋檿 -->
    <radialGradient id="default_profile_glow1" cx="25%" cy="25%" r="50%">
      <stop offset="0%" stop-color="#818cf8" stop-opacity="0.18"/>
      <stop offset="100%" stop-color="#818cf8" stop-opacity="0"/>
    </radialGradient>
    <radialGradient id="default_profile_glow2" cx="78%" cy="30%" r="42%">
      <stop offset="0%" stop-color="#c084fc" stop-opacity="0.15"/>
      <stop offset="100%" stop-color="#c084fc" stop-opacity="0"/>
    </radialGradient>
    <radialGradient id="default_profile_glow3" cx="60%" cy="80%" r="38%">
      <stop offset="0%" stop-color="#6366f1" stop-opacity="0.12"/>
      <stop offset="100%" stop-color="#6366f1" stop-opacity="0"/>
    </radialGradient>
    <!-- 娴悆娓愬彉 -->
    <radialGradient id="default_profile_orb1" cx="40%" cy="40%" r="60%">
      <stop offset="0%" stop-color="#e0e7ff" stop-opacity="0.5"/>
      <stop offset="100%" stop-color="#818cf8" stop-opacity="0.08"/>
    </radialGradient>
    <radialGradient id="default_profile_orb2" cx="40%" cy="40%" r="60%">
      <stop offset="0%" stop-color="#e9d5ff" stop-opacity="0.45"/>
      <stop offset="100%" stop-color="#a855f7" stop-opacity="0.06"/>
    </radialGradient>
    <radialGradient id="default_profile_orb3" cx="40%" cy="40%" r="60%">
      <stop offset="0%" stop-color="#f3e8ff" stop-opacity="0.4"/>
      <stop offset="100%" stop-color="#c084fc" stop-opacity="0.05"/>
    </radialGradient>
  </defs>
  <rect width="1024" height="1024" fill="url(#default_profile_bgGrad)"/>
  <rect width="1024" height="1024" fill="url(#default_profile_glow1)"/>
  <rect width="1024" height="1024" fill="url(#default_profile_glow2)"/>
  <rect width="1024" height="1024" fill="url(#default_profile_glow3)"/>
  <!-- 娴姩鐞冧綋 -->
  <ellipse cx="200" cy="200" rx="100" ry="100" fill="url(#default_profile_orb1)"/>
  <ellipse cx="800" cy="180" rx="80" ry="80" fill="url(#default_profile_orb2)"/>
  <ellipse cx="650" cy="760" rx="120" ry="120" fill="url(#default_profile_orb1)"/>
  <ellipse cx="180" cy="730" rx="65" ry="65" fill="url(#default_profile_orb3)"/>
  <ellipse cx="460" cy="460" rx="48" ry="48" fill="url(#default_profile_orb2)"/>
  <ellipse cx="560" cy="200" rx="58" ry="58" fill="url(#default_profile_orb3)"/>
  <!-- 鏄熷厜鐐?-->
  <circle cx="330" cy="340" r="2" fill="#e0e7ff" opacity="0.55"/>
  <circle cx="710" cy="430" r="2.5" fill="#f3e8ff" opacity="0.5"/>
  <circle cx="450" cy="680" r="2" fill="#e0e7ff" opacity="0.5"/>
  <circle cx="130" cy="490" r="1.5" fill="#e9d5ff" opacity="0.4"/>
  <circle cx="890" cy="580" r="2" fill="#f3e8ff" opacity="0.45"/>
  <circle cx="590" cy="100" r="2" fill="#e0e7ff" opacity="0.55"/>
  <circle cx="270" cy="840" r="1.5" fill="#e9d5ff" opacity="0.4"/>
  <circle cx="780" cy="920" r="2" fill="#f3e8ff" opacity="0.35"/>
</svg>
