<svg xmlns="http://www.w3.org/2000/svg" viewBox="0 0 1024 1024" width="1024" height="1024">
  <defs>
    <!-- 涓昏儗鏅笎鍙?- 闈掔豢绉戞妧鎰?-->
    <linearGradient id="default_toolkit_bgGrad" x1="0%" y1="0%" x2="100%" y2="100%">
      <stop offset="0%" stop-color="#0f1729"/>
      <stop offset="50%" stop-color="#0c2340"/>
      <stop offset="100%" stop-color="#0a1a30"/>
    </linearGradient>
    <!-- 鍏夋檿 -->
    <radialGradient id="default_toolkit_glow1" cx="20%" cy="30%" r="50%">
      <stop offset="0%" stop-color="#06b6d4" stop-opacity="0.18"/>
      <stop offset="100%" stop-color="#06b6d4" stop-opacity="0"/>
    </radialGradient>
    <radialGradient id="default_toolkit_glow2" cx="80%" cy="25%" r="42%">
      <stop offset="0%" stop-color="#10b981" stop-opacity="0.15"/>
      <stop offset="100%" stop-color="#10b981" stop-opacity="0"/>
    </radialGradient>
    <radialGradient id="default_toolkit_glow3" cx="55%" cy="80%" r="38%">
      <stop offset="0%" stop-color="#14b8a6" stop-opacity="0.12"/>
      <stop offset="100%" stop-color="#14b8a6" stop-opacity="0"/>
    </radialGradient>
    <!-- 娴悆娓愬彉 -->
    <radialGradient id="default_toolkit_orb1" cx="40%" cy="40%" r="60%">
      <stop offset="0%" stop-color="#67e8f9" stop-opacity="0.5"/>
      <stop offset="100%" stop-color="#06b6d4" stop-opacity="0.08"/>
    </radialGradient>
    <radialGradient id="default_toolkit_orb2" cx="40%" cy="40%" r="60%">
      <stop offset="0%" stop-color="#6ee7b7" stop-opacity="0.45"/>
      <stop offset="100%" stop-color="#10b981" stop-opacity="0.06"/>
    </radialGradient>
    <radialGradient id="default_toolkit_orb3" cx="40%" cy="40%" r="60%">
      <stop offset="0%" stop-color="#a5f3fc" stop-opacity="0.4"/>
      <stop offset="100%" stop-color="#22d3d1" stop-opacity="0.05"/>
    </radialGradient>
  </defs>
  <rect width="1024" height="1024" fill="url(#default_toolkit_bgGrad)"/>
  <rect width="1024" height="1024" fill="url(#default_toolkit_glow1)"/>
  <rect width="1024" height="1024" fill="url(#default_toolkit_glow2)"/>
  <rect width="1024" height="1024" fill="url(#default_toolkit_glow3)"/>
  <!-- 娴姩鐞冧綋 -->
  <ellipse cx="180" cy="220" rx="95" ry="95" fill="url(#default_toolkit_orb1)"/>
  <ellipse cx="820" cy="150" rx="75" ry="75" fill="url(#default_toolkit_orb2)"/>
  <ellipse cx="700" cy="780" rx="115" ry="115" fill="url(#default_toolkit_orb1)"/>
  <ellipse cx="250" cy="750" rx="65" ry="65" fill="url(#default_toolkit_orb3)"/>
  <ellipse cx="480" cy="480" rx="45" ry="45" fill="url(#default_toolkit_orb2)"/>
  <ellipse cx="580" cy="200" rx="55" ry="55" fill="url(#default_toolkit_orb3)"/>
  <ellipse cx="100" cy="580" rx="50" ry="50" fill="url(#default_toolkit_orb2)"/>
  <!-- 鏄熷厜鐐?-->
  <circle cx="350" cy="320" r="2" fill="#67e8f9" opacity="0.55"/>
  <circle cx="750" cy="420" r="2.5" fill="#a5f3fc" opacity="0.5"/>
  <circle cx="420" cy="650" r="2" fill="#6ee7b7" opacity="0.5"/>
  <circle cx="150" cy="450" r="1.5" fill="#67e8f9" opacity="0.4"/>
  <circle cx="880" cy="550" r="2" fill="#a5f3fc" opacity="0.45"/>
  <circle cx="600" cy="850" r="1.5" fill="#6ee7b7" opacity="0.4"/>
  <circle cx="300" cy="880" r="2" fill="#67e8f9" opacity="0.35"/>
  <circle cx="920" cy="320" r="1.5" fill="#a5f3fc" opacity="0.4"/>
</svg>
